<mxfile host="app.diagrams.net" agent="Mozilla/5.0 (Windows NT 10.0; Win64; x64) AppleWebKit/537.36 (KHTML, like Gecko) Chrome/133.0.0.0 Safari/537.36" version="26.0.16">
  <diagram id="ilHEFqLgc3EoqE_M-z49" name="PÃ¡gina-1">
    <mxGraphModel dx="1433" dy="746" grid="0" gridSize="10" guides="0" tooltips="1" connect="1" arrows="1" fold="1" page="1" pageScale="1" pageWidth="827" pageHeight="1169" math="0" shadow="0">
      <root>
        <mxCell id="0" />
        <mxCell id="1" parent="0" />
        <mxCell id="VO4_LJMoVWFWupn6-bkq-26" value="" style="rounded=0;whiteSpace=wrap;html=1;" vertex="1" parent="1">
          <mxGeometry x="104" y="27" width="457" height="247" as="geometry" />
        </mxCell>
        <mxCell id="VO4_LJMoVWFWupn6-bkq-21" value="" style="edgeStyle=orthogonalEdgeStyle;rounded=0;orthogonalLoop=1;jettySize=auto;html=1;" edge="1" parent="1" source="VO4_LJMoVWFWupn6-bkq-2" target="VO4_LJMoVWFWupn6-bkq-18">
          <mxGeometry relative="1" as="geometry" />
        </mxCell>
        <mxCell id="VO4_LJMoVWFWupn6-bkq-2" value="" style="shape=image;verticalLabelPosition=bottom;labelBackgroundColor=default;verticalAlign=top;aspect=fixed;imageAspect=0;image=data:image/png,iVBORw0KGgoAAAANSUhEUgAAAOEAAADhCAMAAAAJbSJIAAAAbFBMVEX///9ShWtJgGRMgmfu8vBAe16JqJitwbbg6eRlk3x3norq7+xslYC8zsTZ5N9xmoWyyb5+oI5ZinHS3ddfjXX4+vmYtab0+PbM29PF1Mzr8e6FqZeNrp18o4+jvK+3zMGUsKKnwrSeuayWtaRlQRoOAAALSUlEQVR4nO2dabuyIBCGA6zUTMvdPK3n///HY4vlAOZoLpwuni/v9Z4ouGUbBhhnM4TSvU9GlB+vMKXqTyt7zsYEJIQ67piArjMy3xXRNscDNH7GBywQ98lohOsJ+K6IcTQS4G6SKizELiMRuqOOokDLcQjXdDJCfz0GYHR5EPqWM4KsKiELsxEIjfzRDb10txpcu8wBiN4I06Jh3wnZOBOU64FxjdrDGzerR7uZhpDQhTF0lhMTFohDZzk14fDT4uSEg0+LChD6x0GzVICQOemQWSpAOPC0qAIhodsBM1eCkLD9cEspNQgJywfLUhFCQgebFlUhJOwwUJbKEJJwoNWiOoTMGmZaVIewKMIg06JChEUZhlgtqkRYTIsDOFGVIhxkWlSLkNCf3rNUjJCwTd9ZqkbYvxNVOULmBP1mqRxh76tF9Qj7nhYVJOx5tagiIaH7HrNUkpDQHpdSahIS2t+0qChhj9OiqoSkt9WisoS9TYvKEhaI/UyL6hIWRepltagwIaF5HzO/yoSExj1kqTQhoT1svKlN2Me0qDhhD9Oi6oTk45OoyhN+XDDlCYs547NpUX1CMv+snf4DQvrZeDoy4Wr77YSz+OsJ07D9UPO/CGepT5Fi/5RwNjtuUDqWZ3v/HyFWS6oJUdKEE0oTIqUJJ5QmREoTTihNiJQmnFCaUFSUGKLcktALJJ9OqeRQEm52kk/FTZvE3ezJXBQpRSUfTir6pmRkv3E5J6MbE9reRaKuGPXjqpcxWVvTXWgeStRaP6sxOfjfVH+lmH94IEaHqcsymA73ASebuhwD6nbf3fzKJnoX86/T+OX7BpmXrveljOkCX4wiY8rAF2OosOmmis4yktjP7MsbKfFnU5dgcH1AyIr27ft+eJPvP/5Sm/qauJqW+62q3uWJS1dRV0Lmh15+Xqfm/YRgYprHTZx7FpFly1joLA4b17yZGJFpZpvT1glfRQy3QJbkN27yQTIbVdJOhIxYi00qOQOxS5d5KPJ5p0xcQJvZxQ7vAzn7gb+1qakdBq89magxpAMhI/kyqD3iYay5GmDOsu60hJkt7oW04EWYVHhKd83hCSicPd2ekO2zt2dXVzC1f3l3GiR7BPiBR/BMu6YSwXON6lJ9Rlisunbv+IpCAxMizN4dAo2WZTMFkXaik9QMYfBAaV1Nf0ZIF00eqei38mQZeX+cZ1VuVYcw3VHaw7jDlshFXytC5jffc0jAk214Hs+xgnOYuY4kd+KDXzOQZ2/aEKLiqJgv5xXxmw5kPY1ixp1OW8hinOSgKae1c0pnQuphfKbLShdqqvHk1aJ9OHrJWiBdgm64RBrUeELmoJzC+2fG3DOXyHhVwxxGn5ONIj6YUnayav6IkFnyy5uGmQZB4K7KVvbK1xdC5iXXtOnqWV3uq765yTwROyLndg9wI2mbOpQ4z6O0sL5sy3Esb7s9bVKj2g1Zzk0r7iG/pbW3p0N2++xcnRRgRxQXdfQAGmmd3dOZkPv9G9/ZC0lp/xb/+qFzyl6FZjBIl3GwHpb59Suhk6+jWXXK5kbTowgAEuzyngmZOMpsfMHKBv+Hh8yTi+BT90EVMnhtMhF+G150MnHlJmhCoU+Z+wbvB1eiVJIc/mkOM+DP0kLrPML7z5CEC87SDpqvlYOQh9FvY4kofIgb/gtg6knwh4lxhHwk0aA5PjQ7gRI1dxtuNF1xhHAod/H+MxQhs+Ews2tqotfvgEtJUdz4DWbB6ROaLGwLWlHzzz2Fq0POODlg7pSDOpT2Q05cX+cgYCgs7GRIsISwFwaYrzDYdY28uRK5ZzKvfgjxgxZOXgwhN5DPUCtPtoWW5qoRkZuRoDM+BP2kRSNFEXLrMnfe/JVCQoiOo9xN9RIcz5KqWcMNQ6gCPIRJPIfmF/IBMiHw6O7svN3n4mKyVfcb4FSStvHTox4HLChyXcYWorvDPC6sejcn17CrrjQKR9KeCbnoTOgo7eLaolCSHva1ZyJCYOhVTE84EkgWHm+EIfwFZURvGbO9dH0Ymdm+ph5hw45ei2kYJSJrtdeCIOSsfvyuf22sQ8PNpYwsB8309SwpaPAXdAmuwhByMzH+x1ntTeQodWTjFXS5PW+yMa86V6xwftJSCELugl+b35+/uWx9loyrcF5KTuW1mDOo2hYGDcERQoum1QU6eq53CEvMd67rHstfqT7jGndxrTCEcMBod0WQ/dT7r3Z78adA6tJh6FRLUOvyr1F7wpYZMHtd63JbCf4yOGju7k+TxdVW1G4k7dJK0Q6Sh5i/WNc1VVNYycN12r0jAk9j0vZ0TPuRpsVYWhbb32Y19ShUCAUJ17ePwQjbtpF2mC3O7TK4iflOLPXwJ/ywAUfT2wFetq/OkoiFJhSGEA75HY/BMWrLxlV+94FbqV1bMXBkJm0WTje1t9qSrudTGKWXlQDJDzaw19+6RLUN7ZB2/0vtLe+2g2lV1D/w+8dLPgk0QQm30Exxi9OKOqyejp+cE2NbbmHM7z/AZrri11S/rR8vagUMB8KkbR5AlNuENC2uzHAf1IFvKenQRTp4MeCGSmtBM1ri2wW5xRS8wSNr3UhxniiuIxrtwwJURWE7Fbo1cMkcKdj/6HDOENUPfc6n38pPIojCsVkgBDuxuzkIV9qh9XTyCEf8ANhKTYTwxTLgfUhdDsPivPoeV4nJocEx+E6cdS04XaBneF9dG3YIfYKsQ8GplCwRfdGS+w4ZmBJdYQqH+3LnStZmu7XvXUjnKr9jPYvSXPb+1eqf2DI7+aJfDS7YZYeDwPN0K89jg6WqCrtDKu7i7442hd2iMMts7/XfMJgZ7tKGF6oYOcAWL1mqMHFH/S7s8Qug7rvcxawRxBadP4KpzOdhvnGfd+bKsxORYR5/rGcilqew9DK3EtvL/QLyk1I9EQpHQB+KkmAdx/HvJQui6Fr24HUW47Uyj6Isu/zGv5sg4mtH/iJX+cGWTSebH73JMd/gIk0+CVGxfuXrWcnBj+tz6natAL+NQ3GIz/Sod2zKxw55UPJujbTVuTZUAObSfybtubwC3uwuEWXNtOObiVudTcTUYmmWs0Vz4vrXO0ncAYLDYwBC1EvPn0vUc2NS16srsyyCrtmtkbY9I2w3di7jUermbpi+ObJCxSaedbQTWxIy8tNQjdHDCvMajoNH53d2HxVaQNJ+dd+JsGCc52+HkOeYbqdvOmKSNdytDvlvrLo6wLrct6D79Upypf9acMO8+M9k3sE0ZHZCsjo6TWv1Of8Ys66OhW53ZqifLwPT3CXlZekkWa3cYP3rVU3Vwk71ftfuNV30fAKme/xB3P1npwCqs4ev870nOrfsPI4366uW8WVvh4wKO7us+FuR7nJ5JPuxHWRoA8ZFUOi8Hv3kdh4ryv8KY1hfhEoy5H2zPjXzmtP8a3nffZX7dpkbeYbrv+q6Ndh8GPYfi9mz7tbQvxC72o7JF99Xf3gmhM30r9FzjfrOyP/Pqty1C6RHsP67aHVrNcm/KkrUVYwPuB/koc/d54eX+iWfTaw3RSN+mIuuHvN4WgjalmuhcCt+OK2eg4cnfnY6ogPoGc+Ye0O8i/cj6aiCSGnCCaUJkdKEE0oTIqUJJ5QmREoTTihNiJQmnFCaEClNOKE0IVKacEJpQqQ04YTShEhpwgmlCZHShBNKEyKlCSeUJkRKE04oTYiUJpxQmhApTTihNCFSmnBCaUKkNOGE0oRIacIJ1TMhseKlYirjDfVFSCrXRdVQeVS/N0Jl9SGhIQmEq5goJoZKvVpHfB1f9MObIMrfv6yJ/I4X+uVfk+mzbji7BolVGzH+sApns2j9WRzIYcXehyFB16KqlxMp/bwG7zqqOWeEvw0xcG76AypG6u7VXhHWAAAAAElFTkSuQmCC;" vertex="1" parent="1">
          <mxGeometry x="131" y="105" width="77" height="77" as="geometry" />
        </mxCell>
        <mxCell id="VO4_LJMoVWFWupn6-bkq-22" value="" style="edgeStyle=orthogonalEdgeStyle;rounded=0;orthogonalLoop=1;jettySize=auto;html=1;" edge="1" parent="1" source="VO4_LJMoVWFWupn6-bkq-14" target="VO4_LJMoVWFWupn6-bkq-19">
          <mxGeometry relative="1" as="geometry" />
        </mxCell>
        <mxCell id="VO4_LJMoVWFWupn6-bkq-14" value="" style="rounded=1;whiteSpace=wrap;html=1;" vertex="1" parent="1">
          <mxGeometry x="258" y="37" width="132" height="227" as="geometry" />
        </mxCell>
        <mxCell id="VO4_LJMoVWFWupn6-bkq-15" value="" style="group" vertex="1" connectable="0" parent="1">
          <mxGeometry x="274" y="42" width="97" height="98" as="geometry" />
        </mxCell>
        <mxCell id="VO4_LJMoVWFWupn6-bkq-16" value="" style="shape=image;verticalLabelPosition=bottom;labelBackgroundColor=default;verticalAlign=top;aspect=fixed;imageAspect=0;image=data:image/png,iVBORw0KGgoAAAANSUhEUgAAAQwAAAC8CAMAAAC672BgAAAAw1BMVEX////p6elVrO5bZGwzk1xXYGlPWWKAh4xSXGXw7+/AwMCGjJCztrpEpu3v7O7S09Xd3d5dYW1XaWpDgWIvlVqRlZqoxrMkj1SGtZgajE7S3dZCpe3i8PxptfByrIlao3hLm2vx+P6dzPRlbXWKw/JnqIF6vPFesO/d7fvo8/zF1cvI4vnF4Pi62vev1faNxfPU1dakz/XFxcWjp6qy1vaqrbByeX9OdGZFf2IsmFmav6jc4t758fa3z8GPuqB7sZAAhkJgo0wdAAAOV0lEQVR4nO2dCXvauBaGjRMcnETEd24poeC2JgxLIWxZ5s502un//1VX5xzZluSFxcJZRt888xQZQ6LXZ5MsK45jZWVlZWVlZWVlZWVlZWVlZWVlZWVlZWVlZWVlZWVlZWVl9RJ6aHomdOW/dEcM6NI7M6LW3TugcdU0A+Os+Q5oXJiC8R5oEIz/VNK7oYEwfvtvJf3xIjQ27r3pr0QYf3w4r6AP/3sB27h3mcsmc7NfahRGbTTmE+aCWDg1+bUE488PFfQnwWjWRmMaEorTwDj7rZLIKi5a9dAYjBMU4CbTySoy9dXGUmsrqIVGNEpQsCU1GdsY+nKDMOqgMYxRuGzEDWIpQof7aOTbTcI4OY2l68rBIg6j0DaSVwhGs5ISGMGzoGHiN8sIsqnourtwnFkSO9z+ir+9rB5LEcZdp5LwOxBGQsO8bchmADFi2E+aE45hMGFsPKj4M6AjzSu/kq5bCYxT0UizKQWLReIwAg1L3qogAaNRRTKMk9CYjVIUECwGEppwBuk1caBVlZ9jHEZwYbr6itIU4uJ4RG+v0jarNF4xBqOZhBDKLsZobKSuDh2Io2kb3GIutcFMBuHRQIzBOFOTi6mckqYQl41nSvBwXcing36aVCB6PFYYwJmA8dTKrTy8bWUUcwkF9DAaJTnE7YOZQDqN88qEJ5OI8u2RYxZzlpEtw64ropCtgEGNuZTaIXa9D9aCFQfWGqnLHJVnTcAIWs28OrYijHRABkkCc2YKA9ncQxMz64JcRo6skxeC0Vhf3GlqVoWRDsjEVZ6BV8zIVtg4SitQrLmiKHlThFbAeegAzgiMRqYO8yrCkK4xw4u+YcxNAgQvxmWX6Y/hI/eSWfTBcBbs0AGcGRgZONVgSB11YaAuAimFTBeCw2Aihw8eNxzJqdwU22GJ5RXCWLjSRV9JDiG6zbVJkwrRmkokWOhIcA5JLK8Oxly55niJZfsHGlP5FAyU8ilYmc0m0mfGbxTGVE4hGBukglNYRrbnciGGMxtz2Wcme4/eXhUMaUAmcuZA6SfU2VL17VJCvVd6DrhkL3LRaUbDNwZDGZBh9nRWff3ISDmC/WT6ETmWYo7FI0tzMNqy1KYhGBu5C1A78EsuX3MwAjm2kqFM5SN96LAcLsiNnBBf7r4DVwxDdFN0/vductOo+7Hd/predup9MwHjXu4U/tpymKRORcolD8FQFIfAjKqECyxUo5jOzjxbDOP29vYHp/CR/5sD49wojLmb6bhi/SEZitxNMIIozNJRToIIPJMPhKVFeiGM9l+97nmj8b3X7f3V5jDOi2B0DcCIpN8Xhl5K2UUdnylmgQl1oZyEDjFSDgHCqXzELc+yJW7y9bz78+/P3fOv6CYnhZHQIEueKx6CdB53dRyNQA4XrgufU7yGMssxMBqfeufdH73z3ieKGcm91R6HcS41jcQMooE+rtoA9VLxB4wNcs3JD4GlKFmXYXmxOIRFGYz2z+45/++2ja8/p/rRaP+Ttn7/ZAIGp8FwSkKNif1R5hDLOYTWv8weUu1pF4vy1IrOIMicPLXOcDpGugcQZ1glrZA/KJGTMqrmNUhseJBdlMOAQNH92a4JBkgpOKkGVXtElZdq/FiBRKFCEYPK6kAWpW7CAwangV7Q/udLKu4mv6etr0ZiBmqoGDqmwbkSEzGvqJ2kjDpT6g0MPaqpuJM9fn6ZZXASXz5gMsnWGWnTTABFDfT6Uus3JtSBikfcNZKDJ92FHh/Moiy1fu5++Pq3cJRTp1ahpCggd1AHZTi3o4ZJgQz9JF3DghMYitvsOXItLrooq37r4aWvCUZCQ+0eaZpzDEwlCikNxRUqlBeRWnHsOYovtoxe7xfPqu3Pv3rdk5fjKg0yAaX6FunBcdVomvBDB8JqhEKIewyLYhjfP33/Ti+4OJOvqT422l/S1vm3bD6pMNM17U/yTGBB78o5lZKNYEYxc9NP+Ujad3bnmCF8tmkQBt4kU6slEUGmGBeTkMq0Jp0Dx+ZHsigfwhf0/nR1hpBSfcdX/ZH1MVqKMRxOaanFlxigL45lUQzjx20q7hd/Sc1vvDpPW/+YKcclDdSEQd0Gt6FaCi48hZCp2us+GZXyaZfN9v/BRTDat71urN5tmwfQtIkDtbRpNICiFlJ/KJrOY1+AxoxuEjn3WrfRMjaaXRzAohjGTyl9AIx6UquQ5PV4tdOSHJNFpB0kFjhvs6rA4pXCiG2DvGGmjNRE99RwEafPUR4g8zA+FME4gZs4sQug4asFB91HcgaqAYhhmJaP2YGrNPaOGb2imPGrEgy/aLHTPaNkmekgAtIyBsUSrQQ/mEU9900a15eXayfT8m8uUTe5QB5xhKolDMqo6vA2Hq1pJbhILmZglFZZB9YZ0OWkAQig++vLRI2iX0/vNRXlWrigyR2tBD/cLkpgfPuYihcWP6Tmp0Zban38vhvGWvQ/JgOrvRqXkvKdZaD1mqYz9HDRx1JdL8GPYLF3zPhSKWb4l6mfAISAmOC//lbQyUodros0qxeYFET0EvyolfU1pVbJT7bCEFI+ihMpUm45YomhVxc0ii8g9EphBGlgEHYgGct6e5MfQ5XnS2hKS8storx41I72j1sIWhOMtOuNGEvsJuWKaeCkuFZ+uXF5oZfgR7IoiRm/erF+YcxImxAzpOZedcY2dgXlBU+rjR2rqrG+ptnPbGAYpafILI5dL10yuZOK54tPxc3sZ3NgBJJB3OARP84k26CUB7cNUVPpBkCD2IznHL+YvrbFKgKCFDwSGnJFlqNVf5PfaVp+MnZNsagPhnCPrZw5gm1iHWW/I2ZU7aZyHEWiUD9c4dm92mBQ4PR1M2jc7KhBhfRwIYoqvQSPzeWVwyA/CXKqzZKqK9FGK7/ESF4vwauxqBEGmIDkJUEQJCai+E6u9KErlRd6Ce5WfNy3PhhYhqe1hQxgNwyVhsguWdep+OhzjUsf1THZOsmxGEh2PqgjJQ1RXugleGUWdcJYK3nDT2YyGvvVogkNUV7oJXh8/G3AoLoi6XUgD+F3eQlIJFGaGc8O2Ko9xVk3DEfrtTS5UzCfkUdDjDv0EtwEi1phBFpsiKf9trt9RNBgYk4jU40aYfHia8f9whnhPIXiRoFegscxtaJeGsZhirC8yJTghli8MRioTAluisUbhJEpwXctgt5fbw+Gq8dOYyzeIIyMlxhj8QZhyI8ggPZY7LqvdsCAB3aVhq8d9ZUzaoGh0jDIohSG37h86HQergMisH7qXHWetg0/eLrmonPg1VPNMCQauxfHH6ISGP5Dy4P9MFrec9BoBM9eCxuth4bXarU8POeGv/TuMh8/MYw0oxhlUQbjOdlRF3p7Fm+E0HrwYXtZbwvnwNYZ/EDdMJyZWOVm9lsLYfhXuJOO53nN1rXPrQS2B2ly6/ACHzYebnb4h/xnwLKu200cQcMwi2IYN9SfoHHTaVGvm3dBI9heXPCTW8Jc0hd1w3AGjJlmUQjD78A1v4Q38P873rvnpAWf8ngg2Xq5XlIHDGe6/2Pd+6oQRlO55tj95vNWHLiEUHHNQ2y+l9QC4wQqghHEYUHoGqOpF+PwaN+3O9yC6t3DWIMDSAWEL3Zm8y6C2FDOkFiel7x3GI1Gx6Ot2c7QUFrgH+At3k2WxXuDgW6iXHQ/uEIcZArA6rrTzPeS9wYDo8KzepzjaImjmGo7zzqwdwqDyqkbGpXw/9c4HPOf4xzD/aT5fFfgJe8NhtiWjdfcweXFk9/wLnj95QeQPqDqIjcCMnksjoIRPd6jFkZ3zz5IxWMTHIh4Hh+ZeRwGDtGa0EfvOrEcNftWhDHos1iVb42pmo1Wq73uJBTDWLeSoRnASDapE4GELCffS46DIW+xZLS4HPRd5u5zYsmodU2D9iZaxl38uiPeDeBA66xgJuRYGEzsLGN0aI7fvM+JpZM7Nw9XFxedJ6y3t+J1MsX19MB1mfvB42HM53PcT9vM1tlCMxMw1Ek9X5vhy5/wqwgDXwEN3KhwOQ4n4Yie4ozGo9EI9tbAJ9aGEzYZOgN+COLLCN7iWvB/xfK2ZcjNi5bxbPD+22q0++bK65kQTmHA0zaTdF8qiiARtPg1BhgUXtgEVmiAQ8ETfGLDHQq+M7qfwPBuZHwvkr1JGHN6lS5GgQ5HQCikpxH1CeEYBnjYUJwrJMHY7SmvEcaCLMNhbDIexxEk7mB/JhbHDulOfB6MEcyC3T+61FzhrdlxWG0zkZeCEYqYcU/P8dKaHILBxpvImQgGaDo5MHAzjUh8xDEWQGuHEUUR7nUoZRNY0jcWPcPD0Dd6LHGUDwMWOOHyrhUtFzWSWl8ABhOFBk5vRsvReLRcSDCGMZ3Un3JgjGDNdDSbRUtaPP1WYcTCnXX6IiUkMFjybAHdX53mwxgLqvjxzRuGwXsgtqhCz4e/ayPBcFQYg2IYrjTOeaswhsPhZkEDkyFAiJK+R0mP5iy+Y1LsJu5oKLQ4FMZFYFqVsgkpFG4R6TAwgOLaLjmAxnvIDonJpuSbS2GcmfkrpbLOzMDAHYN1GFhzgZ/MpdQKvY9EYYFbTiCtzTT+5t3lZwzjNKoIY0TVxnTi6jCGmG+Wq6TommAFsnIFDAoay/l9yDASY50xHu5XdL1OGFhSMRpkqDAy6zPk57XScpzFhhOX7zt/hQdDf7w2R17pw1ZZGH3t9xV/kGJFTxHAQC22dfFoRTJQQ9NwWZgM1AZi4RcTj86z/WA4z8bjRazOQSycWRhqw4fNpM/CORwfwVIu6e1o5PbdVVJnONGKt4fOPT9FRM7lhKfVyTL5JuaG+zyvFdycRrsetDKgOSubEzN+X/p1qxzGv0wWhqR5n/WNr1h5s+Ij/n9ZZLCysrKysrKysrKysrKysrKysrKysrKysrKysrKysrKysrJ6J/o/7z/rU2PahmQAAAAASUVORK5CYII=;clipPath=inset(15.96% 5.6% 17.02% 53.73%);" vertex="1" parent="VO4_LJMoVWFWupn6-bkq-15">
          <mxGeometry x="5.086377508554518" width="84.77777777777779" height="98" as="geometry" />
        </mxCell>
        <mxCell id="VO4_LJMoVWFWupn6-bkq-17" value="" style="shape=image;verticalLabelPosition=bottom;labelBackgroundColor=default;verticalAlign=top;aspect=fixed;imageAspect=0;image=data:image/png,iVBORw0KGgoAAAANSUhEUgAAAB0AAAAfCAYAAAAbW8YEAAAAAXNSR0IArs4c6QAAAARnQU1BAACxjwv8YQUAAAAJcEhZcwAADsMAAA7DAcdvqGQAAAA2SURBVEhL7c2hAQAgDMTAL/vv3CJYITXkTGSqryw7r6ucopyinKKcopyinKKcopyinKJ+mSYDMiQEOjj5eHgAAAAASUVORK5CYII=;" vertex="1" parent="VO4_LJMoVWFWupn6-bkq-15">
          <mxGeometry y="43.265957446808514" width="15.117021276595745" height="16.159574468085108" as="geometry" />
        </mxCell>
        <mxCell id="VO4_LJMoVWFWupn6-bkq-18" value="" style="shape=image;verticalLabelPosition=bottom;labelBackgroundColor=default;verticalAlign=top;aspect=fixed;imageAspect=0;image=data:image/png,iVBORw0KGgoAAAANSUhEUgAAAOEAAADhCAMAAAAJbSJIAAABGlBMVEX///////7///38/////f8tSm8xSWpRY3Lf4uj7/f9FVnbz9vb++/YmPl4uTW/zvZ39sYrd5ekjP2JTaYP2q4v/roj2z7r44tD8sI757eP6waf6//j78+35spL5sYZEV25ecok7T27V3eZSZXqOmakzUGyttb4pR2QfO14kRmguSG95h5bL09n5793///U0TnOVn61gcoHp8PaAj5sfPVkoQG2bq691g5licI9ngZnW2dqZoag8TWS6wcmhqLWYoLMmQ1r/q3zy0L/Azc/zu5X2tpnxv6z2s4fz4dH56uf5yLbz0LTZ49/4s5ICMlPk7fhUa3qCiJ/Iz9z63tj4u6X0t37/r5n49+H/poiRf37j0sOFdHGZhIlQXXTdCctMAAALkUlEQVR4nO2dC1ubyBqA5wI0aQIGFE3MTZIQAklDYuK6pxpX09V2be3ptj1t9+L//xvnGyCXuo31mCFwduetjxWCwOs3VwYGhAQCgUAgEAgEAoFAIBAIBAKBQCAQCAQCgUAgEPx9IWsR7AKThB2+Dca89gSeWV774gnBKDMYPlmfYfsQpTOI2dHY82RZWQtZlr0j9QfCLUFwg+DcO0OTDUXx1sKRFdvWOsfZ1OVFgrqOb4x6up5ZC/j9pmJZapfyy9d8wI2x5rbZD+vtByL3o2M7lttNWWGD0UhWWoRlH7oWoHhg2/9ytbQpSqgpO885ZB1M0YGiZk4MyzimqSpvaF2zdW6GDTQwFLWbTVNpQ+uyfcjPkKDBOGUJlbMhZMeBoUEU1y25+MHbEBiolgEJNS0pNQZDPHAtp5tNSxBjMIzyIl1/pzwgCAwXZSmGmvFxukuGFBSPbPU4m4pKAwzd00UMCcllHrejJUPGQPXVY5oOw153srSYa3bOHtUFumNIfjLsdFQamOmQeZYhekducjEkUGkYacmLCySkG9o2esx53TEEogYcr3PjAzNUtnnEkBE24DidGie4GrJKwzaO06XI1ZBVGq4PrZs0dYn5plJgMIYGXJo6U9wN8cCABlyKihvuhqynYaemAYdiMKRRZ4qmpafB3ZDBGnCpUYzFsA/1opOWejEWQ4pOXNtJLi9SUinPL+KuYQgiP2rG+9y3OGwpljFIbExjWr3GsyS0Zgwd3zk31LsYhqdYlnaeSaRWxDh/efGpMktBaxhC/2ToKto3xmw0zbYVzXKTCSLGZKv2qcIhhvA7ve1m87b5F7aDdYo8TMZQKldrVR4xDPaWw98eIKYkN9ae5v7/De8hq4JhEhlRGHJDGMaGMOSGMIwNYcgNYRgbwpAbwjA2hCE3hGFsCENuCMPYEIbcEIaxIQy5IQxjQxhyQxjGhjDkRpKGN/8oQwSG8t/LEKH81sVWf7ZAScY56sZxmORiiLKlaWkRM0JenBzGcaDkDPFXjwFjthDLeWzekFIoVhDToRQTHEEwkrCE8CMhmK66L2jzhsGDFYTzjZ+StPKjBFJp8FhknjMkRTGk+dLe7v4WX36eSikwpIRIiJZ2L4s7hYJpFnhRrMG+dp6tOuwGDaEw6D+72inUai9Nc4cjtR2zmApDiZaudsxarfrx+lWpwi8L9vPl/XTEkO4VzEKtel0KS4X1HuBeRqIpMIQMmN+FAN7sVlaVCI+GIrpfNEurPt6QIaH5fSgQtn4p09U11yNJhyHtX5kXL6d5RO+pmx+778QNocVJy9eF4s4U8gw0r3jvPwWGULLs1czilMTzBEvyhlBqlqovzdfBDBZx7D55wyy5qplbeYr5p1BGCgwhjd5cPqPojmG4wDpQQeFDCAqfbiFYkuZdR4xnoSfBxnT+yySYhQmlwhBd1QrT+YNyueezmXOeh/1EAqsm7fakEd3VDtuRPqbBuud0PpsX0RtvcvNOF33zRs+EnyRvSEs7hZsKzUdHaXfcEO9tI/A57CrG0ZFhuKfHvWALcP53SzEMVTU8q3U4exy6pZ4/WUxdcmsY0S34yRuiXbN6TaVslMAmY8VjD0NY/liHRdzreIrmyJ6n+N7bF8Em9MxwfT98YsLpnEWBa3meN5zv9ImmHITuiRvi/JZZ/GWxPAkfjHiq2B1mqKuebTS7g9bxreqdsoSK6ahja67dPDhuKp6ldUYoiGtLtj3jBEU16rbiHIRZOXFDUqpCQbq0HDwFgdpGaDgyPOUsyIG01z0JzuTsyNbUFptQgugtCOP4LLhGBYaWr06i8ig9hpTsmVAXLq2RGHPDWwVSW56EV6dy7C+RGfu+8x4R2AoiNzm1NUdn6bElW7alOA2cLkOSJbs189WSIbs0toihVLedLjt/FlioL+DfsWMfTcINWZ3QdnzlGPbDDH3F9urhVdX0GEr0Y+3L5ztrmaEbxrCp+Kc9xGIYNslJzrAhqktse4rFkiwYaseu7wwp2zo1hlQqXxaK/TsdiiXDn1TfN7qTXFivY0wmhm1MljduG5rag5zYcj2H3sq+O2KbpsgwXy1W7zHMvnMg6Rnjg9b7XFBktj3b0Ze2JQ1VM9qIlaWKh95Ynt9pg2+KDPvV4s49hiQ3Ms4d25aNTn3AnjE78WxFXz4j/VxzWWkKqdTBuKdqvgEtg21bfpAhzo5jj+FN4V5DjDJnB6rqaL42fgKlyA/McHnjxrllnGEUGhJ0ptqQL1HT9h5kSOI2JEE+/HyfIbvGn+sN6mNFc7sEvfDu5MOJCiv6M0NCR+e2946myJDu18y7F8KWDWGBjUMh9MLSNFvHumrLXw0kDiGf6pAKwlRK+9kDx/Z+/ZGVuA8xpI6xHedMfFDBTWvmNKoPMSvnCWtNkjOoDzMIRZ1iCsGBms8+f05QU7MgoxF2nZANSPU87/yAPc4cGsLGuVPWsLUeZAi7bQx0xP3i0NIRJPqhaF7NanzWSMlCukS4pVgdKDyRDu0Vlk7h+8TRDDB83/G9pw3UZwNUfdJ46tjGe/a7c0PUGPua9TDD8Kgrh204QCX6y6V5M2uXguDbLpvzV7dsv87WDM4HUbly2FSUeg5cu6qlWO2grZprWyx3Bp8vDNGk8z8Y4qCtFBtgiK8udj5A74ktkufQ0K4PJoO6bB+dsbrC8lx7OJhMJq2656sD1jDPDh1Nc+vdwaBbP9KgRAl7z2CohNeyMJvUw1KGiH639xTNARfzk84fasWP5WiSuNyB58uyCxWg14RVJGMZMvQEHdVg9f4wCArOdVXoUoT9Q6Uzm2SmBdVIZEjo0LWhxpce0D/cABQ6iND27jNDCWdbjuN4nuEds+odo2z71jVcWfYMtx7N1wZ/995QMdgcz4Yz7M2G90edcWc+09zh7VgFQ7Z98oaYTmuF/X6UZzA6nLS6o3YGEzZ4D19Un5yMuq2zXm6emKDk1CeDbncwyaCw7GWtN0jKJCoUCdEnk14w5VsqDCs3L4uvSXS9O4oCDiKIvroDYzG4vzynzFe3bMz+jy6/seXkDdnlxGKtWqI0nttJUmFIrl6aWxUUz3yNyRtCiqKVas38WImn4k3eMODVjVn7uRTL/Gn314fQ5M0TKf6ZPwj9AFG83JM2P0Kan15O+R/0L0CB/+rTSyhRP5c3PH5I8zcXl+UNzIYFzZBnH81a8XK3QtfKjhKe1yTQUWGJnnXQCsVVdyqA4X8+5TczGRbN79YuzGr1495nss6dGPN4SNEKiGFt5b0YLIaf+puZ0QxOKLyhxvxyuX+9+1j25gHBn6NV05va6hiWr75cl+PPh8EJZbMIM8fCz+bjubh5NjMsvw7WfLkwzZWplGApX8pvaJ4oHIx3osre68ubYuGiBtEswldEoQBfF4XidzDNy/koT3a6E2wP38zLygpDkmUJu7wRwwhKSb5SerW39+G3P/78/cPejN//+O3PvcXiSkqLceD+q8XaFWU0TuDVLOxyGbvthKC6szwnu95xtx+0A+kvP9wHwb3Rt2YcjBkcvJmkrlnzOdkpeTPWtsPi/17IoizNLrog5ZU1EKGOd5vdTG1xF2Y4j2FsT5SE17yTmThxM4axXxG+B2HIh9hHZu5hM4ZJPvckDDkhDGPkH2aIhOGjSYshJvr4aBjHJeO0GEJfY9J95MuC7icthji22e/TYkiCYalHvUnnO6TFMD6EYYz8Iwy5vDvvOyRqyOftgN9BGMbIRgxpaJjImwMIupWdBuI++cBdMh25uZlhi7sEN/2O4mzNREdR3FEyr5fFuDFWlDaK+ZasyVgb95J5/xpmt+j5zq/v13uz+v30Rg5782pir1/LNl3LdRTnG6+I4cKp4zi+ux3LtDcPVRyNZVmTYwN23enmEhQE9MGw2XwSE83mcKAn9rKnkA0cPVlBgUAgEAgEAoFAIBAIBAKBQCAQCAQCgUAgEAgEgu/wX4RelZnUXiM/AAAAAElFTkSuQmCC;clipPath=inset(13.56% 19.33% 11.78% 18.44%);" vertex="1" parent="1">
          <mxGeometry x="281" y="164" width="77.5" height="93" as="geometry" />
        </mxCell>
        <mxCell id="VO4_LJMoVWFWupn6-bkq-19" value="Qual arquivo ficou maior?" style="rhombus;whiteSpace=wrap;html=1;" vertex="1" parent="1">
          <mxGeometry x="275" y="291" width="97" height="103" as="geometry" />
        </mxCell>
        <mxCell id="VO4_LJMoVWFWupn6-bkq-33" style="edgeStyle=orthogonalEdgeStyle;rounded=0;orthogonalLoop=1;jettySize=auto;html=1;exitX=1;exitY=0.25;exitDx=0;exitDy=0;" edge="1" parent="1" source="VO4_LJMoVWFWupn6-bkq-23" target="VO4_LJMoVWFWupn6-bkq-27">
          <mxGeometry relative="1" as="geometry" />
        </mxCell>
        <mxCell id="VO4_LJMoVWFWupn6-bkq-23" value="" style="shape=image;verticalLabelPosition=bottom;labelBackgroundColor=default;verticalAlign=top;aspect=fixed;imageAspect=0;image=data:image/png,iVBORw0KGgoAAAANSUhEUgAAARkAAAC0CAMAAACXO6ihAAAA8FBMVEX///9Sly9XmzJbnzRlqDpQlS5coDVKkCpipTj7/PpIjilRli5pqzwcHBzm8OBGjCjJyckhISEoKCirzJru7u5SUlIAAAD19fUuLi5HR0fj4+Obm5u9vb2fxYyx0p0tLS1dXV3U1NR2dnYWFhazs7OWvIfS5cd7tFZRmSb2+vSNjY1oaGg5OTl8tVdiqDF+s2BGjyAwgwCAgIBvqVBBkQpioz2pqak9PT1VVVXt9emhyItOmR3g7NrS4syUwHvC2bdhn0NtpVO82amOvXJPnBShw5SHtXJFkRl8rWe40K5moUtsola10aqXvImryKAgfAANoyNJAAAJ4ElEQVR4nO2cC3eiSBaAbzSmwzjYgBgeavtsUqKjLjQaAj6SdGJm2sn+/3+zVYUaQBJ7Z9w1p6a+030EhXOsry9VdW+VDcDhcDgcDofD4XA4HA6Hw+FwOBwOh8PhcDisUToqvVM353gInvse1+/yW5rr+1O353gI33K5fJqLDZdpzs/Pyd8tv57/mmT45dTtOR7ETC7LyptqYmL2YM7M0dSwZ+ZYahg0cyQ1LJo5jhomzRxFDZtmjqGGUTNHUMOqmb+vhlkzf1sNu2ZSiQLCxNQMh8MDahg286oGBd5oXr9fL6wti/tyfX7tBcO31bBsJrfRcjmfhb6wd3nPL82+/BZQOxlq2DJzllaDkFsO6Wd+KbTWt/P57ehhPp/X11ZYimxZt6NhlhrGzKTUBKOFjz8oLcq3rhcEpK9BUZeDguB8NF9bpDzlr6+H+2pYMxNXg9wFjgr/3vXyRMj+CIV7Ye+Byrn39tQwZ+YsJgbHi1UP0PuDd3B9j68Lr9Nq2DOzU+OG4M/zKD50Z89rhtcWwCz9QDFoZqMGraHkop+b8n0vA8xT3TCLZiI1yIL66mdnw9c9+JIaoZg0E6mxoPSM0M+oGV4ugJq5ZN7MWfQ0QW/hBgcfqGBYx1MeYT5MzoYZNYPVoEf6Xjh3yQQmn8tSg9ClO6fDNgjXqUSBVTNnOfQV/Bcyz+tZ6/qDe0Eneq/pZRDgZKoeTfVgNoPeeSq9ZNbMGXrqlZBbp7kBzpF8f7G+vR1FzG+/LGa+v1mfnT0MLfC/pzJvtswU4mrufN9F6JtXz8wnKT0/tG7Pg8vvPlhBqijBlpliXM2y1BvRrhh5d09fywsr9F+v9UvWolx/GHkI4W74Ox6aUKpew5iZuBoUCnO0zRS2BJ67yy1xt7PpiT080YtVsi7ZM1OIq1nN4HFrJl6vyRi8RwCjdAGUMTNxNas1rJNmsJoc8i721OTnILjp2jBrZmJq0C0scnu1rMfQGqXVoDJOsS5Tapgz86qmeAdW2gyq4+vCIKUmsGDmpdcU2DJTTKjJQclLVflwmokpX6CEGjSDxWUatswUEmq+gbBMVvlyaEEvDB+i6fA2e5rhHontmCkk1KxCuDtLqXFD3y+RGmj57rUA6pagjNJLdKyZiatZWfA0TqlB3sjz6uSZ8hejIJrQ5Ed4Cuyl1TBnJqYGD9vl8Vk6aoie/IMl0Dx8SRYu8084gfJHF0k17Jl5VTOuw3p1lqUmhzbrLf4a9zh4wBJ6IKyHCTUMmtmpGT9BuDrLVEMKEW69hG/qlepeGXx3BrBAlzE1w/Kp23M8tma2aorPQm9rZl8NWdcdLYgc6IE//H4PwjwfX1Fg0cxWzZ3fyxXfUUMDh6zW4S5nNhPoAHXBpJl/FZJqlqHwvDOTqYaW90Y9oDUsf5SPlc0RU2Y+JdQUczMhGrbfU5PPBz7c19eL9QjFVxQYM5NUgyc0jzEzb6lBAHM8tUHJ3yiwZiahZvU7LOJm3lDjAYwytgOwZiauZvwI1lnxoBoXwNtfh2IuZuJq8IRm5iVqw5mD9xyEjCU6Bs3E1LhC6Y/iITVYQZixesmimVc1SOj9KB5SgxZgZdSGmTSzU/PNh+dx4YCaIIR1RtmcTTNbNasZPI0LB9R4JXjcLuuyb2ajhtYhCgfUjHyY73ZmsW8mUkPrEIX31aAnofeUsZePWTNUDa1DFN9Xg16g5Gbsr2HXDFEz/gG9VNl8Tw1aQ+jl9tWwZeaXtJo/fFgVDqixYBZk7MpizExKzadlCHgS/K4aPDQtgowNa6yZSar5VLDg6+pdNegOoJy1l485M0k14xfoPS6xmyw1ZMsaeg4B3Fh6uVPDnpmkmuUMoLRejgnFRKJA9s8s62EPdjsmkmoYNJOKmujXKus/n57vlme5FQHlPPfH0yP9BEq77UdJNSyaSan5sY62tfb8UhjOKOH2x01g1ZexPTZxNUyaSXXD4/FdOfT9XnwbI/E0q7s5lLEri0Uzn7PVFMbjVe7u+evjy8uC8PLy59PdEq3Q/uIls2ay1ZBxiYTOeEV74SJ+xQdvlrJYNPPLO2oKm4XL4sFSFpNmDqs5kHm/qmHLzOcjqmHOzNHUMGbm8/GihkEzR1LDnJmjRQ2DZo6khk0zx1DDopnjRA1TZv49/osg/CdNwJKZr/8N9UNYp24Ph8PhcNhAMM1Tf4UPykSRJ6f+Dh8Sra0ozVN/iQ9Jq1HpK61Tf4uPSLUzmYjV6FhVcQy1JNLv4JeWFr1pSpJJDzV1A30fvx0JFVT8qdqSWNM76KjSoB81tl8xJ81Bw7Ch1pw2pn3SYrtiKIrRx83WnJsmpY0vVR1D16cOkdhq2qZdGeiGrZ20JUdG6uB29kWJnhjKwHCqjiLf6O2qPRAd0uy2PaneyAMBNLuPaU+VGxwwhty0q31RxsYkfaBUnGpb7zDVk9tilzxRDj0xZJsEQVNpkidjIjY10EyygmtOZexOI7SmCj50ZBJmmiP2BZAGgwmJubbsnLAhx8Y0DOxCFUV6Zog18lIVyfOCw6mpbq9ry9LmhhsFq9Q6Iu1VzOmghWOmYsZuY4SaSP+dmyRy3jLTapnqzkz/ivTWkqjQM7Uvdxk105dtCePIbfLQZJmpVQaDqTFQIjN2h15YEw16qrU7jJox5cYVoaNMydORYaamTKvdbrUSmZko0ShWE6f0fnbN4E7WbGHMPs0Q9s0I7Sh1iJ4mSZejHKvVEekIrTaVGpNmtJtIBUBXrghZZjSDBovWJ2ZapL+NmEbCagruwFk0Iw2MTZ6t0sEmI2b6siOAaZN+Ru0rbYmCg61j1DSQjI4NTJqxr3YzkCY5nF5FZq4iM1c3KkhTsYFTzv6VBKYuyiKmg/sYoaqLjYaskPslOfJbveqfpBX/A4Rad5frtLpYSq1rRse0uzW7OCygZfftmtrCn2jdDVSfhGfEjqTtrtvd9g/irWxI0974fxo5HA6Hw+H8vxFqtmNPaDlYlbYwVdH8i3SnoqIocqcCZJ4rRvBlBiyjoTdkAik4SAo+UHRdH3AzWrPR6LdU1ayRIl70NDV1pa0evJN1TEMXU/FRGygVLoaYUaqJdybKpqL3T6ff0HWn9qpCkpU+H5gINbmhK3rF3rhpTXW9UuX9L6FWEfFgpDSiZ0q6UpSG0qnysMGo3QoZqWVaqTId2zYUXamd+lt9EFr2VG80dxWqdkNhpqL5t7EV/XURtybrxim/zIdiQs1soqaqNHjMaJOu1MIz4IqukJWTqmSqZneg8z19oFbkqVExBnjkNnF2eTXAJ3ik4nM90No4hSS5dpvMYaSpiM/kgcPFkJ13Xcdx7Gi3nmbWbMeZmHw2w+FwOBwOh8PhcDgcDofD4XA4HA6Hw+FwOBzO+/wHOxqvVAL2+QMAAAAASUVORK5CYII=;clipPath=inset(10% 32.21% 11.11% 32.21%);" vertex="1" parent="1">
          <mxGeometry x="476" y="80" width="80.28" height="114" as="geometry" />
        </mxCell>
        <mxCell id="VO4_LJMoVWFWupn6-bkq-24" style="edgeStyle=orthogonalEdgeStyle;rounded=0;orthogonalLoop=1;jettySize=auto;html=1;exitX=1;exitY=0.5;exitDx=0;exitDy=0;entryX=0.037;entryY=0.412;entryDx=0;entryDy=0;entryPerimeter=0;" edge="1" parent="1" source="VO4_LJMoVWFWupn6-bkq-16" target="VO4_LJMoVWFWupn6-bkq-23">
          <mxGeometry relative="1" as="geometry" />
        </mxCell>
        <mxCell id="VO4_LJMoVWFWupn6-bkq-25" value="" style="shape=image;verticalLabelPosition=bottom;labelBackgroundColor=default;verticalAlign=top;aspect=fixed;imageAspect=0;image=data:image/png,iVBORw0KGgoAAAANSUhEUgAAAO0AAADVCAMAAACMuod9AAABklBMVEXt7vIAx9QArUYBfO7kOSHx8vYR4e7/dVcE1lkMtv9RUE/z9PhOTUxHRkVKSUjq6++xsbOWlpdaWVlCQT/BwcS7u75fXl3k5OhUU1Ly7/M+PDr6+//29PIAeO7z8Pfu9vvV1tmNjY4Au/8Asv8AdO4Aqjj/a0h4d3ioqKozMS6ampzQ0dRqamrkMhXkLg3kKQCEhIUL1eIE20vX6u/ry8vs293/akZIz9pzcnMAdfbL2/EDx1K3z/He6ucAqDDmXk/kPynlSjfmZ1rmdGrnf3fni4TomZPpqabqubfC5evrzs7xSCVf0tz0xb+L2eH2uK4nJSHJTU6pbYb+rJ6p2PU9p+W9W2RvrrB4i7jvUjn2d1rFj4Kk3+bkgGnRSUPfg26cdJEHlvUEiPEIm/eFqKbY4/IJpvpqlsqzl40we595TkZJNzYAt8SXvPAAsaw2hk1DZmsAy6ZxqPAClM0CvE0GuXQM0L0DvYwDwIaG5/ACl8sAh90O19CZ4bix5sXR5dyiwfC53Mhpw4eAyZlLunAotFpkno2BAAALEElEQVR4nO2ai3/T1hWAFcONg64kP2RLshQnNk1iy3YSE8hqoAQolNGu7dau3cbWrSMs3QPYxtqV7kFpCPm/e+7Vw5J9pVjkhfmd70ed2FZUfTrnnnvutSUJQRAEQRAEQRAEQRAEQRAEQRAEQRAEQRAEQRAEQRAEQRAEQRAEQRAEQRAEQRAEQd4wCPxbDCHklU9Uqx3hVR0Ti9dXz964cfPm9Xdv3X7vzk/vXto0uXXmE9Xenykcw/UdLeTu+lnGKrC2trYOrF6/fefuZkZlkJ25eGxXeWQs+roRwBuk371zSZpYuHZxZipsRbqe89r66q27hcVJzsFlp8JWWrwk1mXG66u3Nw/29WSnYNwyUnSZ8K2DfH3ZmZO52kOTqgu+76VOTIHstNhKix+k6Z5du5kS3lB2ZgomXI/FD9bSdFfXLyXpDmWnx/Yg3bNJuhHZKbKVFjdXX0E3Kvv2FNlKZHM11fdnH43r1gozU2oLumdTdX8yphuTnflwqmwP0l1ZGdGtSTPJtoSmdp2UHoNANsjmjRTde/lR3ZjszMdRW1IpNVJ0abv0Guiaabr5fDyZ47IzX8RsZbuf4kMH5dO3Bd2bybp50P35UPftEdv3I7akYrd03jcTYppMjBbMwvAnbRmOabIWjVB4/9X3EA4HKSTr5mO6o7IxW9ovm26RSLTcMly3Bect2a7bBM2m7dpNArYt1zVMiTTgfSMt6Y+VFN18RLc2Jhtb8Jl22+n1QM6wO4223aHFX1QLVbdK2267UXQ7TktvNqr6gBKrZ5o967RsgesJutw2v8J0BbLRRQEtuiatug1Cyz2HOK0ypKtDTLvjGAN43iw5Lc0htOOSittwnIbbPU3dtdU1gXHe1/3lokg22lxQYyCZplqitMyyt6MT0rZcW+s4CjyH6QcyGV5vu4WiWrYsiyX96XH9k08/WR/zzYe6AtnodEu6uu66rioTz7ak0r5WNQnEVoZKzeqWbytV7WIFME9Rdv6zc+fPf/6rkVXgjXyo+2uBbWS6pU2VKRTtCi1bEElIZxB1uvDQsiCw2sAJYttwi/BG8xRt5z976xxw/jdx3Xuhbb4jsI2WZJhrCSFUHjiGajUNt+L07WZT10u06xolw+06bL5ltrTvNku2ceqyoPt5bPSupMc2UpLNJp9SoJ9yyqViq1+B7G23+t1OhdBGs9VsUFJsE0j4Jito/f4pjtpQlulGozsM7W8FsrHVrd8uEFalHMqfwe+8dYaf/If3mv/GKWh6RGRHdNNDK14BUV6DX1tqVyKysbE7HLa/E4X2C6Et6TZOWCALI7Kg++n66LD9vUg2aev8NOfRgxiTBd0/rMYTWSw7TZtSPrUro66AP3SDRP5SLPvxIW1Z8aJem3VC6VDbgVCeZ/Hkj0Fw/7geaZKFYzYhkWHKjV059FAFsQopFPs9A9pN2jTKJ9Mzg+xX97fPMLbvP/jqXGg8bKRW/pQgK9yBqxaLlciV046t2kIV0lVVBdBNain6icy+tYsPztTPhNTr2w/eOh/WZVajVr58lCAba6R8mJzqRnRpU5P1ikjFVBVZVTVVLtCyop6ELdnZjrj6xme4MCtULLJJgRWHlsqAFtmuoU1ds0W2tKPKattkBfyEbGs7o6pBhCGl/7x+L7/yl0RXYWhJRZcVWVaHH3OSbqnUEbX/tKcofcf79WRsC0JZP8B/1f+WVJ04oj6K9hWlZcnRaydUvK9K5PCwk7Gdvz+WxkOWHmoPE0csQ/QxtanLaqWkKb0JOkcYtVWxLTnEl3wSmX+8lOxa//s/Hv5zNlsew2pOlRXS0GV9uMMGqwIaOFC+GoAf7AFiW2FLREKcqC2lZrfbNYOECP+cvRXZnI+8PBk7iZGtLz2a25jLPZmdnb2QQVaihqKVqPcYyDasco//UpStjmOWeuVyj/atchnKGTxyhklNpLZh67puG23ef8KfWy0S3EvLCupdoeyddWLm/5Vke/nrqxtzc9/klmdnk3yFywHShah2CYuwFgQB6pZis6SnJVVrVXSNzbBSGR5Z9VY8QlvSKMMcrKlwlGrx/DBtxfYThciK1vLzpKorRqZ030nI43r9KbjOzeVyy09nZ4XCF8RrH5hbFYPy0RtOsaSiyrpnq8kGSLDA0QHEj01Vuofi2xJTU2Td6LQ7BtR2zSS8dKttGtzLoNpDNdQ6WVJ5/rE4tJe/nuOy3+Ryua3ZIRcC5QsXZsWykqTJ/Mp4ZQ7GXdRW1oxqo9EwWZ122Lh1eKMcjltQg9LFXnSqoMtqHW1ryoCfi59A9e+ixpIogy1JyOJH3JWFFvj3rIgEWVL1xdisq5sCW6VHaFhwx2syi55a9G4TGw4sQXjN4wGF/lLxGxce5kxf2ntHmMiXn/iyV7nt8reTy0p0AP2Cl3Sy7Kdf3FaPfhgybstGQvgBArFkjW9DWwoPKGgrfRjvkncuLdP2iLhGXX7qy/JEZozL/idBlgyHK+1oSllgG4uHwBaKeSgRFIHADM7JpnL+f4ADVWHvnWgrjGwoO+fLjudykiy7HFn2FRt6MK6itvzqU2xZONuhLZ+7vWGhUe+gQldn5sPsnhByRZDIS49C2auB7fKTCWVZyoV1EsqNH6UstpIS6TlJEeaxgncg3DmWyC1KoGYTdiPCKjgRNUFFrv8vlA0TGeryt5PJshiowbgcXmoW28KoLZ9vaF+DuwiG8B6kN5vQBxn7atGwvfxdKBsm8ohusiybdobtgmIFDcPhYwulHuYiyBYo83BLoU0rqLKd6VMV0bDd3hDaRgpziixrKeJ4S4PDjVv+xIQzmKbuTbtQtZ2KOtGyY4igkar/d2h7NWqb23pysCyFUChqBNmbb7LYstEebgRAAvvHs8StFlXvkL6mN5ra8KZMgmi2FQ9bL7r7/z9Alk0KyqBgDoE8ZDUrk21skpLloNAVVaXfUni/AqfT2uX4xH0goraxfubZRoIt83363f61hcQTsklBrUZk2H6UktGW91J+1NhGTjCJ8UHiJy+MWSgO2b6bI+wtCguh7qgs84X/knVZWLSYftfrNTJVKchZWW/z3rkNs+wgmM8MJWzOeDHUsn3vav7+uOxOTVr4fiPRlpOsq8gjvRxLbZgUM9nyNZBqNTtNC6qAYgYLW9a36N4z1ownbGIm2wplpVA3yTZJl603R3aNITqKbcbWt/EE1BQ9sA33k/31rcbWt4YZTkZdW9GCO1XQ4YAsrvAnY4m8453a1020zT0X6pKKYYx+C87sGd5Xowy++UCqhhGNPmkZwTemaNMw/FtFSLHHlsBqrxjZnKJ9w6iEgTaMTBVZMAHtBKf2dJNtk3QFO4veS+E7o4dEPvyJfg5EaAGWwIX4B0PRA2jCJmYio11yfWd4bq47VpMj1Uqse5Qc8Z4jiU+3UVnQ3d1Isz0J3aOF/BAdt/Ur8baB6abYTp1urLmoX5kfeXthN9U2t7w7VbrR5mJpTBZ0n199g3QjtiJZpps2cmGdME26Q9uld0SyTDfVdqp0w4+7kmTfKN2gTU6WBd1rL5dTdb+fFt357QNlgYVnW2m+U6Pr2R4gy8L7YjnFd1p0ue3SDwfISsx3L5fsu/VsKnSZ7SSywIK0+yKXFOHp0CXbk8oCCwtkd+/l8pZIeWtvGnQzyDIWgOe7ey/2IcqcqdIl24+zyHow5YVrz3d3n+3tvXj5cn9/n+kuH8PlHTXzr/x1zNpChNf5m7kIgiAIgiAIgiAIgiAIgiAIgiAIgiAIgiAIgiAIgiAIgiAIgiAIgiAIgiAIgiAIMn38CF9rhWCbEavNAAAAAElFTkSuQmCC;clipPath=inset(26.06% 6.12% 27% 4.01%);" vertex="1" parent="1">
          <mxGeometry x="453" y="224" width="100.11" height="47" as="geometry" />
        </mxCell>
        <mxCell id="VO4_LJMoVWFWupn6-bkq-34" style="edgeStyle=orthogonalEdgeStyle;rounded=0;orthogonalLoop=1;jettySize=auto;html=1;exitX=0.5;exitY=1;exitDx=0;exitDy=0;entryX=0.5;entryY=0;entryDx=0;entryDy=0;" edge="1" parent="1" source="VO4_LJMoVWFWupn6-bkq-27" target="VO4_LJMoVWFWupn6-bkq-32">
          <mxGeometry relative="1" as="geometry" />
        </mxCell>
        <mxCell id="VO4_LJMoVWFWupn6-bkq-27" value="" style="shape=image;verticalLabelPosition=bottom;labelBackgroundColor=default;verticalAlign=top;aspect=fixed;imageAspect=0;image=data:image/jpeg,/9j/4AAQSkZJRgABAQAAAQABAAD/2wCEAAkGBxASEBAPDxAPEA8PEhAPEA8QDQ8NDw8QFxEWFhURFh8ZHSggGBonGxMVITEtJTUrMC8uFx8zODM4NygtLisBCgoKDg0OGxAQGy0dHR8tLSstLS0tKy0tLSstLS0tLS0tKy01LS0tLS0tLS0tLS0tLS0tKystLS0tLS0tLS8tK//AABEIALUBFwMBEQACEQEDEQH/xAAcAAEAAgIDAQAAAAAAAAAAAAAAAgMFBgEEBwj/xABDEAACAgEBBAUGCwUIAwAAAAAAAQIDBBEFBhIhEzFRYXEzQXKBkdEHFCIyNFJUk7GysxZCgsHSFSQ1Q2Kh8PEjU5L/xAAaAQEAAwEBAQAAAAAAAAAAAAAAAQIEAwUG/8QAKREBAAIBAwIEBwEBAAAAAAAAAAECAwQRMRIhBRMyQRQVIjNRYXFSkf/aAAwDAQACEQMRAD8A9wAAAAAAAAAAAAAAAAAAAAAAAAAAAAAAAAAAAAAAAAAAAAAAAAAAAAAAAAAAAAAAAAAAAAAAAAAAAAAAAAAAAAAAAAAAAAAAAABqRuBIAAAAAAAJkbgSAAAAAAAAAAAAAAAAAAAAAAAAAAAAKsqTUJSXXGMmvFIRWLWiJTDyeHwhZ+i50fdP+o92PDMUxu7dEJr4QM7tp+6f9Rb5bh/Z5cJLf/O7afun/UPlmH9nlwkt/c7tp+6fvJ+WYf2eXDlb+ZvbT90/ePleH9nlwkt+s3tp+6fvHyvD+zy4SW/Ob21fdP3j5XhT5cOf24ze2r7p+8fK8J5cN63Xzp340LrNOOTnrwrRcpNL8DxdRjjHeaON42ZY4qgAAAAAAAAAAAAAAAAAAAAAAAAAAAKc3ydnoS/Blsfrj+pjl89QfV4I+vr2hojhYmSlNAWJk7i+zFsiuKddkIvkpSrlGL9bRzrmpadolO6CZ03FkWTCUkB6tuN9Bq8bP1GfL+IffszZOWwGNQAAAAAAAAAAAAAAAAAAAAAAAAAAABTmeTs9CX4Mvj9cf1MPnit8l4I+trw0RwsTLJTTG6GwZW7nBju/4xXKcaasidCjLjUJtJPXXT/o86NbF7+XEfpG+/Zkt5t48e+mdddl0pTsrs4LI8MKoxjo4x7tfxOWk0t8eTqvwisbS1ZM9bs6JJltpghNSCXq+4n0Cnxs/UZ8v4h9+zNk5bCY1AAAAAAAAAAAAAAAAAAAAAAAAAAAAFOZ5Oz0JflZfH64/qYfO0HyXgj62nDRCxFks5sXd6V9UsiVkKaIycHNxlZJvujExajV1xT0bbyrMthyNq4zx/itmdZOHBGtuGEoycY6aLVrXzHnY6X64yUjv/Ube5s3aeOsBQd2MmsfIhKlwXTSubfA0/8AnWicsZPO6v2j3Yv9nHKh30XQtVcFOyDrnXOPLmlrykbq676/LvHK0WYNM9GI293TdNCR61uH9Ap8bP1JHy+v+/LNk5bCY1AAAAAAAAAAAAAAAAAAAAAAAAAAAAFGd5Kz0J/lZfH6o/qYfOlb5LwR9ZThojhYpF0tm3K2vKqyeO7HXDKXRqa/yrnyhNetpPxR5+vw9URePZW0LMnejOqsnVd0Mp1ylCXHRW3qn+Hn9ZFNJitETEztKIhB74ZX7qx498caGqLfBYtt5mf+rTXZkt4dr3xxa8W6xyuvSvvWij0db+ZVou3TV+Bn02Ck5ZtHpjsrWO7VEz2IiY7S6J6kyPW9wvoFPjZ+oz5fxD78s1+WxGNUAAAAAAAAAAAAAAAAAAAAAAAAAAABTm+Ts9Cf5WXx+qP6mHzjB8l4I+srw0RwsTLCcZf86iJiJiYk5bJtd/GsWvNXlqFHHy155eau5+PUzBhnyck454nhWO0qd2cSDnPJuX93xErZ8vKWa/8AjqXa20dNZk2iMdeZWtO/Z0M7MndbZdZ8+yTk+7sS7ktEacOOMdIqmOypM67kJxY3S9e3B+gU+Nn6kj5jxD78s1+WxGNUAAAAAAAAAAAAAAAAAAAAAAAAAAABRneSs9Cf5WXx+qP6mHzhW+S8F+B9XXhojhOLLiaYI5Z7dTMrhZbXdNwqyKbKZPglZHienC2lzemnqMWspMxFo5gtDs7Ztprw6cSi9Xt3TutnCudcJLh0iufXoyum675py3j27KxEzLAI9CF00wQnFhL1/cD6BT42fqSPmfEPvyzX5bGY1QAAAAAAAAAAAAAAAAAAAAAAAAAAAFGd5Kz0J/lZfH64/qYfNtT5LwX4H1deGiOFiZcTTJ57SQ3H4P68XjdkukebVxzpqU4QhdHha4Y69clqzy9fOTfpj0q233XZuNQtmUSy43VZNULasevWMZWNyb43F81Fd/qOWCckaj6O8e6sTO7UEew6ppkkJJhL2H4Pv8Pp8bP1JHzPiH35Zr8tkMaoAAAAAAAAAAAAAAAAAAAAAAAAAAACjN8lZ6E/ysvj9Uf0h81VvkvBH1leGiFqZZKaAspscWpRbjKLTjJNpxfmaK2jqjaR2c/aFt8+kuslZNpLWT6kvMuwjFjrjjasbIUpnRZNMEJphL2P4Pf8Pp8bP1JHzOv+9LPflshjUAAAAAAAAAAAAAAAAAAAAAAAAAAAAU5ibrmktW4SSXa2uotSdrRI8Dr3P2jov7nd1LzR959HGsxbcu0WWLdDaP2S72R94+NxflPVCX7JbR+yXeyPvJjW4fybwkt09ofZLvZH3k/GYf8ARvCcd09ofZLvZH3kfG4f9HVCS3T2h9lt9kfeT8bh/KeqElurn/ZbfZH3j43D+TqhNbrZ/wBlt9kfePjcP5OuHqO4+JZVhVV2wcJxdmsZda1m2jwdZki+WZq437s+ZlQAAAAAAAAAAAAAAAAAAAAAAAAAAABgcFYjbkCUgAICQAAckDhIRsORAEgAAAAAAAAAAAAAAAAAAAAAAAAAAGu77bXvx6ILDjXPMyLY048LVJ1uWjnNvhafKEJevQDqZO9Mnj7LzKlD4vmX49V/EpOVcbouMeHnyatcU9QK9ub03U7Tx8SEIPFfRRy7Wmp12XuyNCi9dObr56/WXaBLbG9M6L89dHGePs7CryLOWk5ZFkpcFaeuiXDHV+KAo2ZtPbULaJ5mPg24uROMdcGd9l2KpJuM7OLlOPUm49uvUBnd6duRw8d3ODtslOumiiLSldkWSUa61r2t+zUDXFtjbmO4352NgWYkpwjZVhyybMvHhOSipvVNWcLkuLh8ybAz1O3OHLzqrpV10YscSUZv5L1tUteJt6daSQGXll1qyNLnFWyjKyNfEuNwi0pSS7E5JesDq4O3cS6ydNGTRbbXqp113QsnBp6PVJ69aa9QGRQAAAAAAAAAAAAAAAAAAAAAAAAAAADA8/3iWdk7VhHZ8saP9mUcU5ZMJ2V9PkapJKLXyo1w6+ybAxOBh5C2ftbZV3RvLwpPPx+iUo1yVknk1uCfNJWxnHuAvx6ZZ+y9qbQr16TLteTiOSacY4kY9B4fLqnL+MDt7F2lCez9o7WeO8mrOtnbKhpqU8SuMaGtGnqlCE3p5wMHiXbOpvw57C2hdOy++mD2bG+d9MqJNdK5Qnzp4YJy56acKQG6fCDVNU4uVCErVgZlGZZXBcUpUxUoWNLzuMbOL+EDUt9N6KL4dPszbd0cidajjbPxoxsldc9WuKPC5Qb1566aaAd3ed/K223rpCnZVk+XzYRfFKT7kk36gOd6to/GMu2OBYrsiGx8/gdM1PSyc6nBJrlxNLX2AdXY0Yzs2RwZ2DJQnGVFOHs+VeQq40yVsLH0rcIJPSXEvnKPLXQD1SIHIAAAAAAAAAAAAAAAAAAAAAAAAAAcNgV00wi5SjGMZTac5KKTm0tNZdvrA4ePDjc+CHG4qDnwrjcOvhb69O4BTjQhFQhCMILkoRioxS7NFyAlj0RhFQhGMIR5RjGKjFLuS5ICnH2dTXOVldNUJy14pwqhCctXq9Wlq+fMDstAdWrZ1MJuyFNMLJa8VkaoQm9Xq9Wlq/MBasaGs5cENZpKb4VrNLklLtWjfWBVj7Ppr06KmqvhUkuCuENFJptLRck2l7AOcfBphOVkKqoWT+fZGuEJz56/KaWr59pG8Ds8QiYkc6k7gAAAAAAAAAAAAAAAAAAAAAAAAAMftS26CU6oqajrxwfXJdz7TNqLXpG9HXFWtp2srwNtVW8teCfnhLk9e7tOWLW47/TbtK2TTXp3jhk4s2R+YcO/u5LAAAAAAASMFmVZs2+GVdMOemj4np2t6HlZ6ai9u07Q2YbYa+qN2L2hTmUx6R3uUdUm1Pq17jzdTTWYK9XV2bsNtNlt09GzYdhXznRXKb1k9efVqtXoz2tDktfDE25eZqKxXJMQyBtcAAAAAAAAAAAAAAAAAAAAAAAAA4ZEksPtbYMLdZR+RZ9ZLk/E83V+H1y/VXtLZg1dqdp7wwbyczFektXH/VrOD9fmPKtl1ujj6u8N/Rp9RHbtLvY29a6rK2u+L1/E04PGq2+5Gzjk8LmPTO7JVbfx5fv8PdJNG+niOG3uyW0Wavs7defVLqsg/wCJHeNTinizjOHJHMLPjVf14f8A0i3n4/8ASPKt+JVWbQpj12wX8aInU4q82WjBkniHUv3gx4/vuXopszZPE8FPfd2ros1vZjMnep9VVfrm/wCSPOzeNdXbFG7VXwzp73lXRjZWU9bZShU/N8zVdy95NMWq1MRN+0IyWw4Y2r3lfvBX8mnEr11k+XPV6Lzs7eI0m1aYYV0t9pnLLP4dKhCMF1RSivYerhxxjpFY9mDJab2m35XnZQAAAAAAAAAAAAAAAAAAAAAAAAONCNg0G3YRnUmtJJNPzNaorbHW0bSms9Pp7MPmbt0z1cNa2/q9XsPNz+FYcnfhtw6/JTnuxN+69q14JQmu/wCQzysngt+ay3V8UrPqh0p7CyV/la+EoP8AmZZ8M1ET2d412CUf7EyP/TL2w95Hy7Vp+MwflbTu9kv9xRX+qUf5HSnhWptP1KW8QwxwyONuq35SxLugtf8Adm7F4HEeqWW/intWGZw9jUV84wTl9aXyn/uerg8PwYuIYMmpyX5l31E2xGzOo+JQ6R29c2lHV89F3dhy8mvV1Sv1zts7CR2UcgAAAAAAAAAAAAAAAAAAAAAAAAAAAACEOCUhG0ANjY0CO5oIHJKQAAAAAAAAAAAAAAAAAAAAAAAAAAAAAAAAAAAAAAAAAAAAAAAAAAAAAAAAAAAAAAAAAAAAAAAAAAAAAAAAAAAAAAAAAAAAAAAAAH//2Q==;clipPath=inset(10.77% 33.87% 26.24% 30.29%);" vertex="1" parent="1">
          <mxGeometry x="614" y="32" width="78.07" height="89" as="geometry" />
        </mxCell>
        <mxCell id="VO4_LJMoVWFWupn6-bkq-32" value="" style="shape=image;verticalLabelPosition=bottom;labelBackgroundColor=default;verticalAlign=top;aspect=fixed;imageAspect=0;image=data:image/jpeg,/9j/4AAQSkZJRgABAQAAAQABAAD/2wCEAAkGBxAQDxAQDxAQFhUPEA8QEA8PDxAREBAQFREWGBYRFR8ZHCgsGB4xGxcVIzElKCsrNzIuFyIzOTM4NyotLisBCgoKDg0OGxAQGy0lICUtLSsyListLTIrKy03Mi0tNisvLS0vLSstLS0tLS0tLSstLS0tLS0tLS0tLS0tLS0tLf/AABEIAKIBNgMBEQACEQEDEQH/xAAbAAEAAgMBAQAAAAAAAAAAAAAAAgYEBQcBA//EAEMQAAICAQICBAkJBwIHAQAAAAABAgMEBRESIQYTMUEHFCJRU2Fxs9IXJTI1c4GDkaMVUmKCocHwM7EjJEJDcpKyFv/EABoBAQADAQEBAAAAAAAAAAAAAAABAgQDBgX/xAAxEQEAAQIDBAkEAgMBAAAAAAAAAQIDBBExEhMhUQUVMjRBcYGh0SIzUmEU4SNDkST/2gAMAwEAAhEDEQA/AO4gAAAAAAAAAAAAAAAAAAAAAAAAAAAAAAAAAAAAAAAAAAAAAAAAAAAAAAAAAAAAAAAAAAAAAAAAAAAAAAAAAAAAAAAAAAAAAAAAAAAAAAAAAAAAAAAAAAAAAAAAAAAAAAAAAAAAAAAAAAAAAAAAAAAAAAAAAAAAAAAAAAAAAAAAAAAAAAAAAAAAAAAAAAAAAAAAAAAAANbr+rww6HfOMpKMoRcYbcXlPbvZ1sWZu1xRSmmM5yVheEvG9BkfpfEb+qrvOPf4X3UvflKxvQZH6fxDqq7zj3+DdS9+UnG9Bf8Ap/EOqrvOPf4N1L35SMf0F/6fxDqq7zj3+E7qXvyjY/oL/wBP4h1Vd5x7/CN1L1eEXH9Bf+n8Q6pu849/hO6l78omP6G/9P4h1Td5x7/Bupe/KHj+hv8A0/iHVN3nHv8ABupe/KDj+hv/AE/iHVN3nHv8G6lm6R0wpyboUwqtTnxbOXBsuGLfc/Ucb+AuWaNuqYRVbmIzWQwuYAAAAAAAAAAAAAAAAAAAAAAAAAAAAAAAVXwmfV1n2lPvEbuju8R6r2+05Amekd0kwJpkiSZCUkyRJMJSTGYmmMxJMkb/AKDP5wo/F91IwdJ93nzhS52XWDzTMAAAAAAAAAAAAAAAAAAAAAAAAAAAAAAAFU8Jv1bZ9pT7xG7o7vEeq9vtOPJnpHdNMDL07BtyLFVTBzk+5dy87fcvWzndvUWqdqqSZy1b16Vg43LLyZWWLtow0movzSnLl/sY9/iL32qco5yptTOj2Oo6WuXiFzX7zyp8X5Jjc4uf9kf8TlVzTjRpd72rtvxpPsV6VlO/tT3XtbG3i7XGqIqj9amdUNdq2j3YrXWJOM/9O2D4qrF/C/7GixiaL2mvLxWiqJYKZoWTTAsHQV/OFH4vupGHpLu8+ilzsusnm2YAAAAAAAAAAAAAAAAAAAAAAAAAAAAAAAKn4Tvq2z7Sj3iN3R3eI9V6NXHkz0jsyMDFndbCqtbzskoxXrfe/V3v1IpcuRRTNU+BM5QsWs6lHEhLAwpbKPLKyY8p32rlKKfdBc1/j3w2LM3p3130jkrEZznLHwuj+1cb8u2OPVJbw4k5XWrzwgue3rOleL47Fmnan2hM1ccofTfSVy+cJfxrxeK9qTI/9k8fpPqfT9hVXpywL+tklu8a2KryNu/h7p/cRGLrtzlepy/caG1PijoetdTxY+TFzx5txtpknvW9/pw/dkn3f3LYjDRX/ktcKvCeZVTnxhj65pjxruBS4oTirKbV2WVS7H7Trhb+9oznWNVqZzhgJmhZYegj+cKPxfdSMPSXd59FLnZdbPNswAAAAAAAAAAAAAAAAAAAAAAAAAAAAAAAVPwn/Vtn2lHvEbuju8R6r0auNpnpHZsdDx8my5eJqbtgnNOuSjKMexvdtefb7zhfqtU0/wCXQnKNVg0bo1ZjynlahTKNWNB28EpQfXWb7Qr5N9+39PWY7+LpuRFuzPGeHlCs1Z8IZGiaVLVHkZmVO2fBPhVFHApvkmox43tGKT5L289+2l+9/EytW4jj4yiqdnhDIekY6e37I1DzcTtlv7eT2K/yLmu9p/5/RtTzY3SHo4sWivLod9T6yMeqvcOthJ77SjKD9R0w2Lm9VNmvKf3Caas5yljaw1lYsM5JK2E1RlqK2UpbeRd965P1nXD52b02Z0njCY4Tklv1+lNv6eBdFJ9/UW8tv/b/AOR9rF/quPc0qaBM+g6LD0DfzjR+L7qRg6S7vPopc7Lrp5tmAAAAAAAAAAAAAAAAAAAAAAAAAAAAAAACpeFH6ss+0o94jd0d3iPVejVxpHpHZvdApw3CUsjNuos4nFRqqslvDZPfeK8+/L1GPEVXs8qaIqj9onPksGodStIyPFsq3IXjNHWTtjZFx7NopS7t9n95jtRX/Kp26Yp4TorHa4td0dk5adqcE2nCONfFp7NcM3xNfckd8VERftzPjwTVrD6aLr9XUyoy7M1OU+KOTTkWN1x2SUXFy7N9+59vqIv4SqK9u1EZR4ZJmnjnDc6rpla0jeGXGxK+eVGye8XeknDg2k9+Jb/mjNZvT/K40ZeGXJSJ+rRpOj63wNU3+iq8Z/z9a+E2YnhiLXnK86wn0ef/ACOqb9nVY6/m6yW39Rivv2suclWsNAj6DosXQJ/ONHst91IwdJd3n0Uudl1482zAAAAAAAAAAAAAAAAAAAAAAAAAAAAAAABUfCl9WWfa0e8Rt6O7xHqvRq4ymeldmdpGoLHs6x002+S49XkQ44c2vK28/L+rOF61NynKJmPJExmtujdIqsrrMG7HxceGXFwVmPXwbXrnW5c+fP8ArsfPvYWuzlepqmqY58lZjLi1uj2rAyMnGzo2RjdRZj2OCTceJrayO/0l27e073onEUU12tYnP+kzxjOE1pGm9v7U8n914V3H7O3+wjEYmOG74+adqrk+XSHPptWLj4vWThjQnCM5w2lbOyabaivYi+Gt10TXcucJn2KYmOMt/bollWmWY1TjLIcq8nLojJO2NOz4YpLt22i2vb51vjjEU1YmLlXCnSJ8FYq+rNrLl4tpcIPlPPtVu3esev6Lftls/vNNM77FbUaUx7ra1K8mfQdFi6Av5xo9l3upmHpLu8+cKXOy7AebZgAAAAAAAAAAAAAAAAAAAAAAAAAAAAAAAqHhT+rLPtaPeI29H/fj1Xo1cYTPSOyUX/j5r7xOgtmbplefV41gQirIRSysGCScWlt1tS74vzL/AH3PnUXasPVu7unhPypE5cJQxektdtcaNSolcq/JhfCXDlVLzbv6X3+bnuWqwtVM7dirL9eCdnxpS8T0d81m5UV+5LH4pL1bpbDeYyNaIM6uTP0nXdMw7o9Rj3S7Yzy7nB21prbirjs13+pnK7h8Tdp+ufSNETFUsDV8bJwMqGTG2U+sfW05e+6ui1v5Xr27V5jtYqtYi1u5jLLWOXktGUxk2GsRWqV+N0b9dTXGORi777Qj/wByrzrm+X9+3lYmcJVuq+zOk/KI+ngqaZ9RdY+gD+csf8b3MzD0l3efOFbnZdiPNs4AAAAAAAAAAAAAAAAAAAAAAAAAAAAAAAVDwqfVdn2tHvEbej/vx6r0auKpno3ZJMkZGHl2UzjZVOUJx+jOD2a/zzFK7dNcbNWgsn/6bHyfrHDhOffk4z6m5+uS7JP7/uMX8O5b+zXl+p0V2ctJebaK+fHqS/h4cd/1JzxmmVJ9T6Q1rT8fniYTnNfRtzZqfC/OoR5f7ETh79z7leUcoRlPinh9LZ2ynXqP/Fov240klKh91lW3Zt5v8a5gYoiKrPCqPdM08mz0XSqsHIWY87HlRWpuHV2b3XJxaVbj5+a39n5cL1+vEUbrYna9oRM5xlkpttnFKUktuKUmoru3e+x9aiNmmIl0WHwffWWP+N7mZi6S7vPnClzsuxnnHAAAAAAAAAAAAAAAAAAAAAAAAAAAAAAAAKf4Vvquz7Wj3iNvR3eI9V6NXFEz0bskmBJMkTTJEkwJJgSTAkgQmmErJ4PX85Y/43uZmDpLu8+cKXOy7KeccAAAAAAAAAAAAAAAAAAAAAAAAAAAAAAAA0PTXRbM7Dnj1ShGUp1y4p78O0ZpvsT8x3wt6LNyK5TTOUuffJVmenxvzt+E+p1rR+Mum3D1eCvM9Pjfnb8I61o/GTbh6vBZmenxvzt+Eda0fjKd5CS8F2Z6fG/O34SetqPxk3kPfkvzPT4352/COtqPxk3kPV4MMv0+P+dvwjrWj8ZN5CS8GOX6fH/O34R1tR+Mm8hL5Msv02P+dnwk9a2/xn2N5D1eDPL9Nj/nZ8I61t/jPsbyG26L9B8jEy6r7LaZRr6zdQc+J8VcorbePrM2Kx9F63NERKtVecL8fLcwAAAAAAAAAAAAAAAAAAAAAAAAAAAAAAAAAAAAAAAAAAAAAAAAAAAAAAAAAAAAAAAAAAAAAAABhatq2PiV9blXV1Q4lHjtkox4nvtHn38n+QH2wsuu6uFtM4zhZFShOD3jKL7GmB9wAAAAAAAAADV6P0hw8xzjiZNNrr241VNS4d99t9vYwNk7IpqLa3fNR3W7S8wGrl0jxVnLT3N+MSq65V8E9ur5+Vxbbdz7wNsAAAAAAAAAAAAAAAAAAAAAAAAAAAAByXwp6jj5Grabp+VbXDHpby8yds1CG7jJVwb7ntGS/FQH18EOs7adn4cbVOWmzyOoti1JTonxyrsi+xrijN+xoCu0dI9et0Zav+0YRjj2RrdKxaeK9O6MHZNtbLyp7bJLlHzgbHP6Ra1ivStQuzKpVandQpYEMeEa6q7VGSgpPeUnwN89+T86A3vhC1yVeXGmvXPFNqlvi04DzL3a92pS4YtxXDw8n5mwPh0L1vUdV0i2Xj0ce/FypVzzXj1zU6YVRm3KEtkn5fN7L6PtAweg/SXU5Q1LUMjLnk4WDRkdS5Y9OO8u2tcXHBQjvGO0Wubf013ppBgz13XoaZHXZZ9Tg7It6f4tBVdVK7ql5Xb27d++z7e4Dc9JelmfbnaRVp10ao6phq1K2qFirdkXLrXut3KMd2lvs2uYGT0H1jUatZy9Jz8pZKqx1kV39VCqS/0uW0V2bW9j35x7eYFh8JuueJaVlWxe05w6inbt623yVJexNy/lA5X0Jy8XTtT0nxfIpnHNwo4udGqxS6rLlLii57d/G64L/wAZAbjXsTULulKppz1VZ4nKePcsaFiooblvTwye0ny5z9fqA96RY2ZPpTTViXwrvlpkISyp1KfVx2sc7Iw7HLkkk+XlAbDot0vzsZ65RqFscmWk1ddC1QjXKzyZvhfClye0PZu+b5AU9eEvOrqjmPVI2XdZvZpPiEoUKnifJW8Pbsk+3fn2trmF06Q67qdut1afgZUaYZOBXbxWU129Q27JStimt3LaCik3t5XZ3gZHg+6QZqy9VwNSyYW/s/gkspwhVtB8TcpbbLbbhfPs582gKXq3TvMxUsmjW/HXC7htxlprpxXDZvaNnDs+xLk9+e+/LmHe4PdJ+dJgegAAAAAAAAAAAAAAAAAAAAAUTT/B3XLUM7O1HxfJ8alHqap0KUaIR5JeVvu+CNa3W3Y/OB5jeD7xfUr8rDnTTRk4k8azEjU4xUpQS447PZeVGL7O+XnA+ON4O7YaBPR/GIcU58av6uXCv+Yjbtw7/wAO3aBka90EsycPScZXwi9MniynNwk1b1Nai1Fb+TvsB8dR6DZsdVyNQwM6qnxytV3K3H62da4YRbr57f8ARF8/6gYFXgyyqtLydOoz4pZWa752yrk5Tx+rjHqZ7S7W4Rba5PmttmBtujnRHOpqeHl5ePbhvGsxnjU4qpe047b8W7fY5b+dvcDQvwX6g8dadLVU8BW9Yq/F14xwcfHwcW/73Pzb923ICzZ/Qri1LTMyqyEKtNpdMaOFtyjwSjFJ78tlJfkB9cPonOGuX6q7YuN2MsdUqD4otKrym9+f+m+7vAh096IWapPCi7oRoxr1dfTKDk7+aXCnvy8jjXf9MDB6X+DLEyaIRwasfEuruhbHIqojF+Sn5L4dt+bTXrigPOkXQrOt1CjUsPMqpvhjRx7usp6yEvpbyiv5nyfmXMDOq6IW/tmrVJ3wl1eFHFnDq2pTns97OT2XN9mwHzwegqjmavffZGdWrVqqVMYuMoQ4XF89+3Zga3Sehus4dSxMXVqVjxlLq3ZiKeRXCUt3Fbvbvf58tuSQbu7onOWuV6r1seGGL4u6eF8Tfl+Vvv8Axf0AwI9AG8nWbbL1wavT1KjCDU6VwOPFu35XaBXsjwWahdp8NPu1KnqseTnjwrxtk5OT3la993ynPZLve7b2A6zBbJLzJICQAAAAAAAAAAAAAAAAAAAAAAAAAAAAAAAAAAAAAAAAAAAAAAAAAAAAAAAAAAAAAAAAAAAAAAAAAAAAAAAAAAAAAAAAAAAAAAAAAAAAB//Z;fontStyle=1;clipPath=inset(18.15% 21% 4.14% 23%);" vertex="1" parent="1">
          <mxGeometry x="593" y="179" width="119" height="86.41" as="geometry" />
        </mxCell>
        <mxCell id="VO4_LJMoVWFWupn6-bkq-35" value="&lt;b&gt;&lt;font style=&quot;font-size: 14px;&quot;&gt;Crawler&lt;/font&gt;&lt;/b&gt;" style="text;html=1;align=center;verticalAlign=middle;resizable=0;points=[];autosize=1;strokeColor=none;fillColor=none;" vertex="1" parent="1">
          <mxGeometry x="660" y="133" width="69" height="29" as="geometry" />
        </mxCell>
        <mxCell id="VO4_LJMoVWFWupn6-bkq-37" value="&lt;b&gt;&lt;font style=&quot;font-size: 14px;&quot;&gt;Boto3&lt;/font&gt;&lt;/b&gt;" style="text;html=1;align=center;verticalAlign=middle;resizable=0;points=[];autosize=1;strokeColor=none;fillColor=none;" vertex="1" parent="1">
          <mxGeometry x="404" y="57" width="58" height="29" as="geometry" />
        </mxCell>
      </root>
    </mxGraphModel>
  </diagram>
</mxfile>
